{"title":"Circle Of Pain (2010) DvDRiP XViD-SPRiNTER","uid":5631637,"size":735827279,"categoryP":"video","categoryS":"movies","magnet":"?xt=urn:btih:0da9c5dd9130a3bb22fb2001efa968830ca6756a&amp;dn=Circle+Of+Pain+%282010%29+DvDRiP+XViD-SPRiNTER&amp;tr=udp%3A%2F%2Ftracker.openbittorrent.com%3A80&amp;tr=udp%3A%2F%2Fopen.demonii.com%3A1337&amp;tr=udp%3A%2F%2Ftracker.coppersurfer.tk%3A6969&amp;tr=udp%3A%2F%2Fexodus.desync.com%3A6969","seeders":2,"leechers":0,"uploader":"hiest","files":40,"time":1276707148,"description":"Genre : Action\n\nPlot : Following an in-ring accident, Dalton Hunt retired from the world of mixed martial arts at the top of his game. Unable to outrun his guilt, he lost his family, his title, and his way. But when a crooked promoter lures him back into a fight against the current undefeated champ, Colin 'The Brick' Wahle, Dalton must enlist the aid of an enigmatic trainer to turn him back into a warrior so he can stand tall and do battle once again.\n\n\n \nVideo \nID : 0 \nFormat : MPEG-4 Visual \nFormat profile : AdvancedSimpleL5 \nFormat settings, BVOP : Yes \nFormat settings, QPel : No \nFormat settings, GMC : No warppoints \nFormat settings, Matrix : Default (H.263 \nCodec ID : XVID \nCodec ID/Hint : XviD \nDuration : 1h 28mn \nBit rate : 935 Kbps \nWidth : 640 pixels \nHeight : 352 pixels \nDisplay aspect ratio : 16:9 \nFrame rate : 23.976 fps \nResolution : 24 bits \nColorimetry : 4:2:0 \nScan type : Progressive \nBits/(PixelFrame) : 0.173 \nStream size : 591 MiB (84 \nWriting library : XviD 1.2.1 (UTC 2008-12-04 \n\nAudio \nID : 1 \nFormat : MPEG Audio \nFormat version : Version 1 \nFormat profile : Layer 3 \nFormatSettingsMode : Joint stereo / MS Stereo \nCodec ID : 55 \nCodec ID/Hint : MP3 \nDuration : 1h 28mn \nBit rate mode : Variable \nBit rate : 162 Kbps \nMinimum bit rate : 96.0 Kbps \nChannel(s) : 2 channels \nSampling rate : 48.0 KHz \nResolution : 16 bits \nStream size : 102 MiB (15 \nAlignment : Aligned on interleaves \nInterleave, duration : 24 ms (0.58 video frame \nInterleave, preload duration : 531 ms \nWriting library : LAME3.95 \nEncoding settings : -m j -V 2 -q 3 -lowpass 19 --vbr-new -b 96\n &lt;a href=&quot;\nhttp://www.imdb.com/title/tt1541664&quot; rel=&quot;nofollow&quot; target=&quot;_NEW&quot;&gt;\nhttp://www.imdb.com/title/tt1541664&lt;/a&gt;","torrent":{"xt":"urn:btih:0da9c5dd9130a3bb22fb2001efa968830ca6756a","amp;dn":"Circle+Of+Pain+%282010%29+DvDRiP+XViD-SPRiNTER","amp;tr":["udp%3A%2F%2Ftracker.openbittorrent.com%3A80","udp%3A%2F%2Fopen.demonii.com%3A1337","udp%3A%2F%2Ftracker.coppersurfer.tk%3A6969","udp%3A%2F%2Fexodus.desync.com%3A6969"],"infoHash":"0da9c5dd9130a3bb22fb2001efa968830ca6756a","infoHashBuffer":{"type":"Buffer","data":[13,169,197,221,145,48,163,187,34,251,32,1,239,169,104,131,12,166,117,106]},"announce":[],"urlList":[]}}